
<?xml version="1.0" encoding="UTF-8" standalone="no"?>
<svg
   version="1.1"
   id="Layer_1"
   x="0px"
   y="0px"
   viewBox="0 0 758.45083 1242.3876"
   enable-background="new 0 0 1920 1920"
   xml:space="preserve"
   width="758.45081"
   height="1242.3876"
   sodipodi:docname="CURLY-HEAD-REMIX-7-.svg"
   inkscape:version="1.3.2 (091e20e, 2023-11-25, custom)"
   xmlns:inkscape="http://www.inkscape.org/namespaces/inkscape"
   xmlns:sodipodi="http://sodipodi.sourceforge.net/DTD/sodipodi-0.dtd"
   xmlns:xlink="http://www.w3.org/1999/xlink"
   xmlns="http://www.w3.org/2000/svg"
   xmlns:svg="http://www.w3.org/2000/svg"
   xmlns:rdf="http://www.w3.org/1999/02/22-rdf-syntax-ns#"
   xmlns:cc="http://creativecommons.org/ns#"
   xmlns:dc="http://purl.org/dc/elements/1.1/"><sodipodi:namedview
     id="namedview1"
     pagecolor="#ffffff"
     bordercolor="#000000"
     borderopacity="0.25"
     inkscape:showpageshadow="2"
     inkscape:pageopacity="0.0"
     inkscape:pagecheckerboard="0"
     inkscape:deskcolor="#d1d1d1"
     showgrid="false"
     inkscape:zoom="1.0061273"
     inkscape:cx="379.67364"
     inkscape:cy="621.19379"
     inkscape:current-layer="Layer_1" /><metadata
     id="metadata952"><rdf:RDF><cc:Work
         rdf:about=""><dc:format>image/svg+xml</dc:format><dc:type
           rdf:resource="http://purl.org/dc/dcmitype/StillImage" /><dc:date>2024</dc:date><dc:creator><cc:Agent><dc:title>Hyperslower</dc:title></cc:Agent></dc:creator><cc:license
           rdf:resource="http://creativecommons.org/publicdomain/zero/1.0/" /></cc:Work><cc:License
         rdf:about="http://creativecommons.org/publicdomain/zero/1.0/"><cc:permits
           rdf:resource="http://creativecommons.org/ns#Reproduction" /><cc:permits
           rdf:resource="http://creativecommons.org/ns#Distribution" /><cc:permits
           rdf:resource="http://creativecommons.org/ns#DerivativeWorks" /></cc:License></rdf:RDF></metadata><defs
     id="defs950"><linearGradient
       id="linearGradient10"><stop
         style="stop-color:#afc6e9;stop-opacity:1;"
         offset="0"
         id="stop12" /><stop
         style="stop-color:#4f85ce;stop-opacity:1;"
         offset="1"
         id="stop14" /></linearGradient><linearGradient
       id="linearGradient46"><stop
         style="stop-color:#ffbeb4;stop-opacity:1;"
         offset="0"
         id="stop40" /><stop
         style="stop-color:#ffccc4;stop-opacity:1;"
         offset="0.03153154"
         id="stop41" /><stop
         style="stop-color:#ffd7d0;stop-opacity:1;"
         offset="0.21321321"
         id="stop42" /><stop
         style="stop-color:#ffd9d2;stop-opacity:1;"
         offset="0.5105105"
         id="stop43" /><stop
         style="stop-color:#ffebe8;stop-opacity:1;"
         offset="0.58708709"
         id="stop44" /><stop
         style="stop-color:#afc6e9;stop-opacity:1;"
         offset="0.79654539"
         id="stop45" /><stop
         style="stop-color:#88a9df;stop-opacity:1;"
         offset="0.94887221"
         id="stop46" /></linearGradient><linearGradient
       id="linearGradient2"><stop
         style="stop-color:#ffe2dd;stop-opacity:1;"
         offset="0"
         id="stop2" /><stop
         style="stop-color:#e98b79;stop-opacity:1;"
         offset="1"
         id="stop11" /></linearGradient><linearGradient
       xlink:href="#linearGradient53"
       id="linearGradient54"
       x1="121.82217"
       y1="220.90231"
       x2="122.69121"
       y2="236.94284"
       gradientUnits="userSpaceOnUse"
       gradientTransform="translate(0,4.0731123)" /><linearGradient
       id="linearGradient53"><stop
         style="stop-color:#ffe2dd;stop-opacity:1;"
         offset="0"
         id="stop53" /><stop
         style="stop-color:#ffcfc6;stop-opacity:1;"
         offset="1"
         id="stop54" /></linearGradient><filter
       style="color-interpolation-filters:sRGB"
       id="filter19"
       x="-0.064056497"
       y="-0.11853793"
       width="1.128113"
       height="1.2370759"><feGaussianBlur
         stdDeviation="0.4602829"
         id="feGaussianBlur19" /></filter><radialGradient
       xlink:href="#linearGradient22"
       id="radialGradient23"
       cx="76.463829"
       cy="99.480354"
       fx="76.463829"
       fy="99.480354"
       r="31.861271"
       gradientTransform="matrix(2.4845411,0,-0.00148596,0.94863991,-113.44008,3.9935079)"
       gradientUnits="userSpaceOnUse" /><linearGradient
       id="linearGradient22"><stop
         style="stop-color:#d5e1f4;stop-opacity:1;"
         offset="0.33984962"
         id="stop22" /><stop
         style="stop-color:#81a8de;stop-opacity:1;"
         offset="1"
         id="stop23" /></linearGradient><filter
       style="color-interpolation-filters:sRGB"
       id="filter41"
       x="-0.041694065"
       y="-0.086791024"
       width="1.0833881"
       height="1.173582"><feGaussianBlur
         stdDeviation="1.1000544"
         id="feGaussianBlur41" /></filter><filter
       style="color-interpolation-filters:sRGB"
       id="filter60"
       x="-0.48143346"
       y="-0.58493788"
       width="1.9628669"
       height="2.1698758"><feGaussianBlur
         stdDeviation="3.1763182"
         id="feGaussianBlur60" /></filter><filter
       style="color-interpolation-filters:sRGB"
       id="filter64"
       x="-0.10427026"
       y="-0.93205108"
       width="1.2085405"
       height="2.8641022"><feGaussianBlur
         stdDeviation="1.6726586"
         id="feGaussianBlur64" /></filter><filter
       style="color-interpolation-filters:sRGB"
       id="filter63"
       x="-0.1138694"
       y="-0.43701202"
       width="1.2277388"
       height="1.874024"><feGaussianBlur
         stdDeviation="4.0602794"
         id="feGaussianBlur63" /></filter><linearGradient
       xlink:href="#linearGradient33"
       id="linearGradient38"
       gradientUnits="userSpaceOnUse"
       x1="84.473152"
       y1="208.74919"
       x2="84.407257"
       y2="207.21281"
       gradientTransform="translate(0,4.0731123)" /><linearGradient
       id="linearGradient33"><stop
         style="stop-color:#afc6e9;stop-opacity:1;"
         offset="0"
         id="stop34" /><stop
         style="stop-color:#ffffff;stop-opacity:1;"
         offset="1"
         id="stop35" /></linearGradient><linearGradient
       xlink:href="#linearGradient33"
       id="linearGradient35"
       x1="84.536339"
       y1="195.13611"
       x2="84.536339"
       y2="196.86467"
       gradientUnits="userSpaceOnUse"
       gradientTransform="translate(0,4.0731123)" /><filter
       style="color-interpolation-filters:sRGB"
       id="filter59"
       x="-0.27934866"
       y="-0.92857994"
       width="1.5586973"
       height="2.8571599"><feGaussianBlur
         stdDeviation="3.3800358"
         id="feGaussianBlur59" /></filter><radialGradient
       xlink:href="#linearGradient9"
       id="radialGradient62"
       gradientUnits="userSpaceOnUse"
       gradientTransform="matrix(2.3907753,0.04471953,-0.04930969,2.6361716,-144.53893,-222.90153)"
       cx="94.109848"
       cy="137.71588"
       fx="94.109848"
       fy="137.71588"
       r="10.032501" /><linearGradient
       id="linearGradient9"><stop
         style="stop-color:#ffffff;stop-opacity:1;"
         offset="0.43843845"
         id="stop8" /><stop
         style="stop-color:#ffe2dd;stop-opacity:1;"
         offset="0.83783782"
         id="stop9" /></linearGradient><linearGradient
       xlink:href="#linearGradient46"
       id="linearGradient1"
       x1="93.605309"
       y1="183.58267"
       x2="90.641953"
       y2="107.77752"
       gradientUnits="userSpaceOnUse" /><linearGradient
       id="linearGradient3"><stop
         style="stop-color:#ffbeb4;stop-opacity:1;"
         offset="0"
         id="stop7" /><stop
         style="stop-color:#ffccc4;stop-opacity:1;"
         offset="0.03153154"
         id="stop5" /><stop
         style="stop-color:#ffd7d0;stop-opacity:1;"
         offset="0.14264263"
         id="stop6" /><stop
         style="stop-color:#ffd9d2;stop-opacity:1;"
         offset="0.32582584"
         id="stop13" /><stop
         style="stop-color:#ffebe8;stop-opacity:1;"
         offset="0.58708709"
         id="stop4" /><stop
         style="stop-color:#afc6e9;stop-opacity:1;"
         offset="0.79654539"
         id="stop3" /><stop
         style="stop-color:#88a9df;stop-opacity:1;"
         offset="0.94887221"
         id="stop10" /></linearGradient><radialGradient
       xlink:href="#linearGradient9"
       id="radialGradient61"
       cx="108.77528"
       cy="137.4671"
       fx="108.77528"
       fy="137.4671"
       r="10.032501"
       gradientTransform="matrix(2.3907753,0.04471953,-0.04930969,2.6361716,-144.53893,-222.90153)"
       gradientUnits="userSpaceOnUse" /><radialGradient
       xlink:href="#linearGradient32"
       id="radialGradient33"
       cx="143.98622"
       cy="138.90843"
       fx="143.98622"
       fy="138.90843"
       r="7.2217784"
       gradientTransform="matrix(1.1827781,0,0,1.4983139,-26.317528,-63.328144)"
       gradientUnits="userSpaceOnUse" /><linearGradient
       id="linearGradient32"><stop
         style="stop-color:#afc6e9;stop-opacity:0;"
         offset="0.65413535"
         id="stop33" /><stop
         style="stop-color:#afc6e9;stop-opacity:1;"
         offset="1"
         id="stop32" /></linearGradient><linearGradient
       xlink:href="#linearGradient36"
       id="linearGradient37"
       x1="99.464935"
       y1="175.98773"
       x2="99.190353"
       y2="172.84921"
       gradientUnits="userSpaceOnUse"
       gradientTransform="translate(0,4.0731123)" /><linearGradient
       id="linearGradient36"><stop
         style="stop-color:#ffffff;stop-opacity:1;"
         offset="0"
         id="stop36" /><stop
         style="stop-color:#afc6e9;stop-opacity:1;"
         offset="1"
         id="stop37" /></linearGradient><linearGradient
       xlink:href="#linearGradient3"
       id="linearGradient1-0"
       x1="93.605309"
       y1="183.58267"
       x2="90.641953"
       y2="107.77752"
       gradientUnits="userSpaceOnUse" /><linearGradient
       xlink:href="#linearGradient3"
       id="linearGradient40"
       gradientUnits="userSpaceOnUse"
       x1="93.605309"
       y1="183.58267"
       x2="90.4757"
       y2="104.86659" /><filter
       style="color-interpolation-filters:sRGB"
       id="filter1"
       x="-0.29514667"
       y="-0.18539657"
       width="1.5904449"
       height="1.3688817"><feGaussianBlur
         stdDeviation="1.0525513"
         id="feGaussianBlur1" /></filter><linearGradient
       xlink:href="#linearGradient2"
       id="linearGradient11-0"
       x1="1073.7457"
       y1="783.38464"
       x2="1073.115"
       y2="630.24475"
       gradientUnits="userSpaceOnUse" /><linearGradient
       xlink:href="#linearGradient2"
       id="linearGradient6"
       gradientUnits="userSpaceOnUse"
       x1="997.84161"
       y1="1596.3578"
       x2="645.65497"
       y2="1423.243" /><linearGradient
       xlink:href="#linearGradient2"
       id="linearGradient7"
       gradientUnits="userSpaceOnUse"
       x1="1071.7483"
       y1="1344.6757"
       x2="1401.5001"
       y2="1278.6256" /><linearGradient
       xlink:href="#linearGradient2"
       id="linearGradient8"
       gradientUnits="userSpaceOnUse"
       x1="1073.7457"
       y1="783.38464"
       x2="1067.3623"
       y2="552.58282" /><linearGradient
       xlink:href="#linearGradient10"
       id="linearGradient14"
       x1="847.85284"
       y1="1828.3322"
       x2="868.26398"
       y2="1619.9601"
       gradientUnits="userSpaceOnUse" /></defs><g
     id="g2546"
     transform="matrix(0.52160271,0,0,0.52160271,-123.17774,240.91048)"
     style="display:inline;stroke:none"><path
       style="fill:#fdfdfd;stroke:none;stroke-width:0.3"
       id="path2468"
       d="m 996.37,89.19 c 2.79,-0.2 5.6,-0.01 8.41,0.09 -0.02,0.4 -0.06,1.21 -0.08,1.62 -2.91,0.31 -5.83,-0.17 -8.33,-1.71 z" /><path
       style="fill:#010101;stroke:none;stroke-width:0.3"
       id="path2472"
       d="m 951.24,381.18 c 13.99,-3.09 28.61,-4.31 42.86,-2.47 15.65,1.96 28.84,11.18 41.91,19.27 4.27,3.15 9.55,5.46 12.54,10 -0.8201,1.55 -2.16,2.72 -3.3501,3.97 1.7301,3.17 4.4601,6.18 4.53,9.96 -0.6,3.15 -2.66,5.88 -4.96,8.01 -1.55,0.53 -2.63,-1.21 -3.66,-2.05 -6.36,-7.57 -13.14,-14.94 -21.12,-20.84 -10.02,-6.88 -22.25,-9.25 -34,-11.36 -13.38,-2.55 -27.25,-0.64 -40.15,3.34 -2.41,0.6 -4.96,1.33 -7.42,0.65 -1.36,-1.11 -1.82,-2.83 -1.1,-4.44 1.9601,-6.54 6.8401,-12.81 13.9201,-14.04 z" /><path
       style="fill:#714329;fill-opacity:1;stroke:none;stroke-width:0.3"
       d="m 903.05859,379.94922 c -1.38447,-0.0757 -2.73906,0.34961 -3.53906,1.63086 -4.87,6.35 -8.38023,13.68047 -10.99023,21.23047 -3,8.54 -6.36907,17.7089 -4.28907,26.8789 1.74,7.28 4.77985,14.1811 6.83985,21.3711 1.38,7.99 -3.81016,15.73976 -1.66016,23.75976 1.38,7.49 7.17906,13.45946 7.53906,21.18946 0.22,5.81 3.43157,10.8107 6.60157,15.4707 1.05,-11.56 1.83968,-23.15094 2.92968,-34.71094 0.58,-7.33 1.88008,-14.64953 1.08008,-22.01953 -0.62,4.42 -0.79101,8.9093 -1.79101,13.2793 -0.51,0.01 -1.52907,0.0408 -2.03907,0.0508 -0.78,-3.57 0.56938,-7.27008 1.10938,-10.83008 -5.58093,6.67457 23.01885,-31.76589 9.57812,-49.23828 0.85,-4 -6.46804,1.42844 -7.49804,-2.85156 -2.14,-3.81 -5.42899,-6.92946 -8.95899,-9.43946 -2.34,0.94 -2.70109,4.23922 -4.12109,6.19922 -0.49,1.73 -1.88029,0.63016 -2.90039,0.16016 1.4,-2.9 2.46055,-6.11992 4.81055,-8.41992 1.79,-1.21 3.98117,-0.11063 5.45117,1.10937 3.49,2.88 17.89101,14.45672 19.79101,18.63672 3.05,-6.2 6.07446,-17.50039 7.06446,-24.40039 -4.26,-0.55 -18.66561,-7.00508 -22.59571,-8.45508 -0.73875,-0.33 -1.58142,-0.55615 -2.41211,-0.60156 z"
       id="path2474" /><path
       style="fill:#030203;stroke:none;stroke-width:0.3"
       id="path2476"
       d="m 968.82,403.04 c 8.49,-2 17.4,-3.91 26.11,-2.12 18.78,3.58 35.5099,16.22 44.14,33.26 -1.9399,-0.21 -2.7799,-2.01 -3.7699,-3.41 -4.78,-7.05 -10.2101,-13.96 -17.55,-18.5 -3.93,-2.38 -7.81,-5.04 -12.24,-6.38 3.93,2.61 8.43,4.32 12.03,7.45 7.78,6.08 10.19,16.13 14.05,24.73 -1.22,0.5 -2.5,0.47 -3.75,0.27 -13.7499,-1.52 -27.8099,-1.3 -41.21,-5.06 -7.02,-2.65 -13.36,-7.01 -19.01,-11.9 -2.74,-2.3 -5.41,-6.86 -2.05,-9.82 5.84,-5.22 13.91,-7.15 21.51,-8.08 6.27,-0.93 12.44,1.03 18.45,2.54 -9.72,-5.29 -21.44,-4.76 -31.95,-2.4 -5.41,1.02 -10.59,2.9 -15.94,4.11 0.17,-0.36 0.51,-1.1 0.69,-1.46 3.2899,-1.61 6.9699,-2.24 10.4899,-3.23 m 6.16,7.95 c -1.97,1.15 -3.85,2.73 -4.51,5.01 1.35,3.85 5.1,6.03 8.32,8.19 5.65,3.34 11.43,6.96 18.06,7.95 9.58,1.5 19.32,1.31 28.99,1.41 -2.54,-6.64 -5.68,-13.15 -10.2599,-18.64 0.24,7.54 -5.08,14.87 -12.66,16.15 -7.77,2.35 -16.82,-3.03 -18.08,-11.08 -0.92,-5.48 2.5,-10.29 6.08,-14.03 -5.5301,0.83 -11.1301,2.08 -15.9401,5.04 m 18.44,-4.68 c -4,2.51 -6.77,7.08 -7.22,11.77 0.13,5.85 5.15,10.98 10.83,11.88 6.4,0.66 13.71,-2.63 15.85,-9.07 1.07,-2.72 2.14,-7.07 -1.2,-8.62 -5.51,-3.2 -11.88,-5.83 -18.26,-5.96 z" /><path
       style="fill:#fdfdfd;stroke:none;stroke-width:0.3"
       id="path2478"
       d="m 974.98,410.99 c 4.81,-2.96 10.41,-4.21 15.94,-5.04 -3.58,3.74 -7,8.55 -6.08,14.03 1.2599,8.05 10.31,13.43 18.08,11.08 7.58,-1.28 12.9,-8.61 12.66,-16.15 4.58,5.49 7.72,12 10.2599,18.64 -9.67,-0.1 -19.41,0.09 -28.99,-1.41 -6.63,-0.99 -12.41,-4.61 -18.06,-7.95 -3.22,-2.16 -6.97,-4.34 -8.32,-8.19 0.6601,-2.28 2.5401,-3.86 4.5101,-5.01 z" /><path
       style="fill:#552200;stroke:none;stroke-width:0.3"
       id="path2480"
       d="m 993.42,406.31 c 6.38,0.13 12.75,2.76 18.26,5.96 3.34,1.55 2.27,5.9 1.2,8.62 -2.14,6.44 -9.45,9.73 -15.85,9.07 -5.6801,-0.9 -10.7,-6.03 -10.83,-11.88 0.45,-4.69 3.22,-9.26 7.22,-11.77 m 4.9,3.94 c -4.88,1.11 -6.59,8 -2.86,11.3 3.37,3.76 10.27,1.35 10.87,-3.59 1.07,-4.53 -3.53,-9.02 -8.01,-7.71 z" /><path
       style="fill:#030302;stroke:none;stroke-width:0.3"
       id="path2482"
       d="m 998.32,410.25 c 4.48,-1.31 9.08,3.18 8.01,7.71 -0.6,4.94 -7.5,7.35 -10.87,3.59 -3.73,-3.3 -2.02,-10.19 2.86,-11.3 z" /><path
       style="fill:#010101;stroke:none;stroke-width:0.3"
       id="path2484"
       d="m 1105,415.04 c 11.26,-1.76 22.55,-3.58 33.97,-3.94 11.76,-0.22 23.7101,-0.97 35.26,1.79 15.75,2.85 29.49,12.1 40.89,22.98 2.08,2.16 4.63,4.16 5.59,7.12 -1.35,4.27 -7.0499,4.11 -10.71,4.41 -8.4,0.89 -14.54,-5.9 -21.95,-8.5 -9.1801,-3.22 -18.66,-5.56 -28.14,-7.68 -18.87,-4.46 -37.85,1.77 -56.27,5.46 -1.26,0.32 -2.3101,-0.7 -3.39,-1.13 -2.62,1.46 -5.24,3.1 -8.21,3.66 -3.0901,-0.05 -3.92,-3.72 -4.2101,-6.16 -0.5599,-4.93 2.8101,-8.94 5.5801,-12.61 1.87,-2.25 3.24,-4.97 5.5499,-6.82 1.98,0.6 3.8502,2.14 6.0401,1.42 z" /><path
       style="fill:#090200;stroke:none;stroke-width:0.3"
       id="path2486"
       d="m 959.71,425.76 c 7.21,6.28 13.0099,14.91 22.47,18.07 8.36,2.4 17.13,3.03 25.79,3.4 1.48,0.04 2.9301,0.29 4.3701,0.76 -2.21,1.55 -4.92,0.97 -7.4,0.89 -7.51,-0.69 -15.11,-1.17 -22.4,-3.21 -6.89,-1.99 -12.2,-7.14 -17.24,-11.98 -2.1201,-2.42 -5.0501,-4.57 -5.5901,-7.93 z" /><path
       style="fill:#030302;stroke:none;stroke-width:0.3"
       id="path2488"
       d="m 1108.5601,442.53 c 8.5299,-4.57 17.5499,-9.12 27.4099,-9.49 11.49,0.42 22.5601,4.28 32.89,9.11 6.58,3.04 12.1801,7.73 17.61,12.46 1.86,1.66 3.89,3.3 4.9301,5.66 -3.66,-1.21 -5.84,-4.7 -8.84,-6.92 -8.26,-7.48 -18.51,-12.35 -29.16,-15.38 v 0.31 c 10.84,3.38 18.7899,12.07 25.37,20.91 1.46,2.25 3.48,4.66 3.11,7.53 -1.79,3.07 -5.85,2.64 -8.88,2.7 -11.12,-0.43 -22.3199,-0.63 -33.24,-2.96 -12.04,-2.56 -23.73,-6.45 -35.53,-9.9 -0.07,-0.55 -0.2,-1.66 -0.27,-2.22 8.6901,-5.97 17.36,-12.17 27.13,-16.29 5.5801,-2.31 11.76,-2.15 17.63,-1.21 l 0.03,-0.36 c -6.0601,-1.42 -12.38,-2.12 -18.5601,-1.12 -8.6399,1.93 -16.59,6.07 -24.1699,10.53 -1.24,0.69 -2.54,1.2 -3.91,1.53 1.3298,-2.52 4.1499,-3.49 6.45,-4.89 m 4.5,11.01 c 10.8899,6.34 23.4299,8.94 35.61,11.61 8.45,0.46 17.62,2.89 25.5499,-1.26 -0.6599,-7.03 -5.78,-12.63 -10.6899,-17.27 0.74,5.15 -0.14,10.97 -4.48,14.36 -7.3501,7.22 -21.4,2.49 -24,-7.1 -1.3,-5.25 1.49,-10.18 4.36,-14.34 -10.0001,1.87 -18.73,7.5 -26.35,14 m 28.3899,-13.18 c -4.74,4 -7.0299,11.9 -2.9399,17.15 2.99,3.58 7.84,5.32 12.42,5.39 7.99,-0.39 13.83,-9.84 10.1499,-17.1 -2.4099,-3.2 -6.58,-4.42 -10.25,-5.56 -3.04,-0.48 -6.56,-1.39 -9.38,0.12 z" /><path
       style="fill:#060200;stroke:none;stroke-width:0.3"
       id="path2490"
       d="m 1045.1801,436.26 c 0.2599,-1.83 3.24,-1.24 2.3099,0.75 -4.03,17.55 -8,35.25 -14.42,52.12 -8.6995,16.37182 -15.2377,20.70826 -21.1642,38.01915 -0.03,2.7 1.3342,8.31085 1.8142,10.95085 -3.6,0.62 -3.8342,-6.70085 -4.4242,-9.17085 1.5569,-17.08349 17.3813,-31.34002 22.0341,-42.62915 5.99,-16.27 9.6601,-33.26 13.8502,-50.04 z" /><path
       style="fill:#fdfdfd;stroke:none;stroke-width:0.3"
       id="path2492"
       d="m 1113.0601,453.54 c 7.62,-6.5 16.35,-12.13 26.35,-14 -2.87,4.16 -5.66,9.09 -4.36,14.34 2.6,9.59 16.6499,14.32 24,7.1 4.34,-3.39 5.22,-9.21 4.48,-14.36 4.9099,4.64 10.03,10.24 10.6899,17.27 -7.9299,4.15 -17.1,1.72 -25.5499,1.26 -12.1801,-2.67 -24.7201,-5.27 -35.61,-11.61 z" /><path
       style="fill:#552200;stroke:none;stroke-width:0.3"
       id="path2494"
       d="m 1141.45,440.36 c 2.8201,-1.51 6.3401,-0.6 9.38,-0.12 3.67,1.14 7.8401,2.36 10.25,5.56 3.6801,7.26 -2.1599,16.71 -10.1499,17.1 -4.5801,-0.07 -9.4301,-1.81 -12.42,-5.39 -4.0901,-5.25 -1.8001,-13.15 2.9399,-17.15 m 5.08,3.3 c -4.27,1.67 -5.51,7.77 -2.03,10.85 3.52,3.63 10.48,1.31 11.04,-3.74 1,-4.87 -4.52,-9.09 -9.01,-7.11 z" /><path
       style="fill:#020302;stroke:none;stroke-width:0.3"
       id="path2496"
       d="m 1146.53,443.66 c 4.49,-1.98 10.01,2.24 9.01,7.11 -0.5601,5.05 -7.52,7.37 -11.04,3.74 -3.48,-3.08 -2.24,-9.18 2.03,-10.85 z" /><path
       style="fill:#060200;stroke:none;stroke-width:0.3"
       id="path2502"
       d="m 1118.54,471.08 c 11.13,3.12 21.96,7.59 33.47,9.24 8.28,1.01 15.67,-3.59 23.0699,-6.5 0.6001,0.06 1.8101,0.19 2.41,0.25 -8.37,4.46 -17.6799,9.25 -27.46,7.66 -9.25,-1.76 -18.2001,-4.74 -27.13,-7.64 -1.6899,-0.66 -3.9799,-0.87 -4.3599,-3.01 z" /><path
       style="fill:#060200;stroke:none;stroke-width:0.3"
       id="path2508"
       d="m 1001.9943,522.69454 c 1.4901,-1.19 2.71,0.77 1.8,2.06 -2.6017,5.69579 -13.15725,3.93349 -12.90938,17.58637 0.11382,6.26992 14.71088,9.62711 16.33508,12.63909 -5.8562,1.25066 -18.73883,-4.55822 -18.81085,-12.15757 -0.15548,-16.40428 9.08604,-17.29648 13.58515,-20.12789 z" /><path
       style="fill:#030202;stroke:none;stroke-width:0.3"
       id="path2510"
       d="m 1009.42,543.42 c 4.42,-1.48 6.55,3.76 8.39,6.77 2.56,5.44 5.89,10.98 6.43,17.03 -2.09,0.23 -3.43,-1.59 -4.26,-3.21 -3,-5.67 -7.16,-10.93 -12.76,-14.18 -1.08,-0.85 -2.67,-1.39 -2.98,-2.85 1.32,-1.67 3.2,-2.83 5.18,-3.56 z" /><path
       style="fill:#060200;stroke:none;stroke-width:0.3"
       id="path2512"
       d="m 1084.6541,540.15953 c 3.3101,0.12 5.815,6.32152 6.0949,8.71152 1.8213,6.9988 -5.306,17.51226 -10.4354,17.91319 -0.9301,1.12 -6.3936,1.55576 -7.3835,0.12566 10.2234,-2.67412 14.7962,-11.73651 13.5878,-15.28156 0.9099,-3.23 -1.9238,-8.19881 -1.8638,-11.46881 z" /><path
       style="fill:#030302;stroke:none;stroke-width:0.3"
       id="path2514"
       d="m 1039.98,562.08 c 5.63,-2.93 11.75,-5.04 18.04,-5.99 4.11,-0.31 7.9299,1.72 11.5699,3.37 1.52,0.38 1.87,1.97 2.4601,3.22 -4.7001,-0.57 -9.4301,-1.26 -14.14,-0.45 -6.3201,0.39 -11.87,3.66 -17.77,5.5 -3.17,-0.31 -1.81,-4.3 -0.16,-5.65 z" /><path
       style="fill:#a46451;fill-opacity:1;stroke:none;stroke-width:0.3;stroke-miterlimit:4;stroke-dasharray:none;stroke-opacity:1"
       id="path2516"
       d="m 973.58,608.36 c 10.12,1.95 20.27,4.17 29.81,8.19 11.06,3.77 22.14,7.91 33.8199,9.29 14.03,2.5 28.23,4.29 42.12,7.44 -11.6,3.24 -21.1327,15.84774 -32.8328,18.73774 -2.37,0.73 -9.8335,-1.81773 -12.1536,-2.32773 -10.1699,-2.44 -20.36,-4.83 -30.43,-7.64 -7.41997,-1.92 -12.99997,-7.47 -18.61997,-12.33 C 980.50363,625.15001 978.08,613.21 973.58,608.36 Z" /><path
       style="fill:#000000;stroke:none;stroke-width:0.3"
       id="path2518"
       d="m 969.53,603.56 c 12.12,-2.82 24.2599,-5.69 36.61,-7.35 2.71,-0.2401 5.61,-0.59 8.21,0.5099 5.8,2.04 9.3,8.3701 15.7101,9.05 5.83,0.33 12.0199,-2.47 17.6,0.38 8.48,4.27 16.38,9.6 24.21,14.94 3.8,2.86 8.1801,5.14 11.25,8.86 1.24,1.32 1.98,4.26 -0.45,4.72 -10.79,3.75 -23.1186,14.31955 -34.1387,17.29955 -3.4399,0.86 -7,2.1 -10.5499,1.17 -10.9901,-2.54 -21.9501,-5.25 -32.8201,-8.22 -8.41004,-2.05 -14.64004,-8.45 -20.99004,-13.9 -5.67,-5.29 -10.54136,-18.54955 -16.08136,-23.97955 0.47,-1.1599 0.95,-2.3199 1.44,-3.4799 m 3.95,1.99 c 7.73,1.93 15.64,3.22 23.2,5.79 11.19,4.1 22.44,8.22 34.1,10.81 16.3099,2.47 32.53,5.65 48.84,8.0699 -2.86,-2.84 -6.37,-4.89 -9.62,-7.23 -7.42,-5.05 -14.87,-10.11 -22.86,-14.21 -6.33,-3.4301 -13.4,1.18 -19.9501,-0.98 -6.7,-1.79 -10.5699,-9.94 -18.15,-9.1 C 997.03,599.84 985.15,602.51 973.48,605.55 m 0.1,2.81 c 4.5,4.85 8.72136,17.14955 13.51136,21.71955 5.62,4.86 11.2,10.41 18.62004,12.33 10.07,2.81 20.2601,5.2 30.43,7.64 2.3201,0.5099 4.75,1.2599 7.12,0.53 11.7001,-2.89 24.4686,-14.05955 36.0686,-17.29955 -13.89,-3.15 -28.09,-4.94 -42.12,-7.44 -11.6799,-1.38 -22.7599,-5.52 -33.8199,-9.29 C 993.85,612.53 983.7,610.31 973.58,608.36 Z" /><path
       style="fill:#a46451;fill-opacity:1;stroke:none;stroke-width:0.3;stroke-miterlimit:4;stroke-dasharray:none;stroke-opacity:1"
       id="path2520"
       d="m 973.48,605.55 c 11.67,-3.04 23.55,-5.71 35.56,-6.85 7.58,-0.84 11.45,7.31 18.15,9.1 6.55,2.16 13.6201,-2.45 19.9501,0.98 7.99,4.1 15.4399,9.16 22.86,14.21 3.25,2.34 6.76,4.39 9.62,7.23 -16.3099,-2.42 -32.53,-5.6 -48.84,-8.0699 -11.66,-2.59 -22.91,-6.71 -34.1,-10.81 C 989.12,608.77 981.21,607.48 973.48,605.55 Z" /><path
       id="path2522"
       style="fill:url(#linearGradient8);fill-opacity:1;stroke:none;stroke-width:0.3"
       d="m 1213.6211,651.4082 c -7.743,5.96458 -15.1092,12.59288 -23.9083,17.00498 -4.2861,2.38858 -8.1948,5.44308 -12.6171,7.58091 -2.3581,0.57414 -4.7414,-0.56231 -6.4968,-2.00329 -6.8616,-5.52212 -11.4255,-13.42692 -18.5307,-18.70605 -3.1845,-2.34161 -7.1785,-4.13304 -11.2097,-3.42052 -4.2212,0.74166 -7.8379,3.28338 -11.8456,4.59975 -17.9452,7.33334 -37.2273,11.05565 -56.5822,11.68219 -14.4714,0.88594 -29.0439,0.78065 -43.4367,-1.0921 -11.8459,-0.81064 -23.6151,1.22294 -35.409,1.95343 -8.96727,0.70892 -18.1267,1.05556 -26.93501,-1.00072 -3.59769,-0.97013 -6.89054,-2.95049 -9.43291,-5.70925 -2.94772,-2.69112 -7.19839,-4.09128 -11.1339,-3.09783 -4.95654,0.95377 -8.92194,4.27467 -13.29607,6.54835 -1.16776,0.54732 -2.53081,1.21069 -3.82781,0.78067 -1.66438,-0.90223 -2.03715,-2.93353 -2.91456,-4.45773 -1.25558,-2.68242 -2.68054,-5.29187 -4.41193,-7.6999 -1.28653,24.19212 -3.35483,48.33815 -5.86484,72.43173 -0.8986,6.44269 -2.41095,12.7789 -3.57503,19.16765 l -7.01325,35.80297 c -9.71104,5.97622 -19.81003,11.61838 -28.1248,19.52639 -5.02083,4.99201 -8.56399,11.17418 -12.65461,16.89542 -9.46133,14.09954 -18.48884,28.49389 -26.99755,43.18923 -10.69271,19.59608 -20.49703,39.65753 -30.45739,59.63227 -7.4705,15.16736 -15.04719,30.2893 -22.13305,45.6387 -4.96411,12.23574 -8.51249,25.01347 -11.14084,37.94165 -2.78041,14.8532 -2.88941,30.1302 -1.03782,45.1046 1.17302,10.4629 2.82168,20.8861 5.19261,31.1468 3.10693,12.7324 8.29571,25.0552 16.03501,35.6734 11.76779,16.799 28.22392,30.0773 46.63042,38.9868 22.425,11.0942 47.12381,17.416 72.07073,19.0225 19.64964,1.0196 39.26434,-2.0076 58.35009,-6.4529 15.70607,-3.703 31.35591,-7.8224 46.49371,-13.4592 12.7264,-4.8254 24.9746,-10.9926 36.156,-18.7785 11.5752,-7.7329 22.4089,-16.6168 31.9124,-26.8094 8.6976,-9.1135 16.8234,-18.756 24.8265,-28.4821 13.5514,-17.4334 25.1848,-36.2376 37.1109,-54.7931 18.0706,-28.54021 35.4076,-57.54531 54.1862,-85.62923 11.0263,-15.9041 22.427,-31.55231 32.9987,-47.76455 16.5474,-24.93715 32.3066,-50.38804 47.9523,-75.89982 1.3012,-2.26365 2.4879,-4.5882 3.6168,-6.94092 -3.5109,-4.5718 -8.7613,-7.31581 -13.9746,-9.49023 -10.6713,-4.57298 -21.0225,-10.27498 -29.5991,-18.19037 -10.2883,-9.04418 -19.2867,-14.70269 -26.9862,-26.03776 -4.4206,-6.85427 -11.5842,-12.39501 -16.0437,-19.22299 -0.7831,0.17861 1.6446,-6.06519 0.8614,-5.88677 0.6133,-20.76263 4.696,-41.22813 8.8287,-61.49752 1.357,-6.12578 3.0242,-12.17639 4.8647,-18.17436 -0.1654,0.12891 -0.3307,0.25782 -0.4961,0.38672 z" /><path
       id="path2524"
       style="fill:#afc6e9;fill-opacity:1;stroke:none;stroke-width:12.5;stroke-dasharray:none;paint-order:markers stroke fill"
       d="m 875.13867,801.08203 c -10.4178,5.36702 -19.83477,12.51544 -30.3593,17.7109 -5.40482,2.80362 -11.06585,5.06216 -16.64305,7.48664 -8.85174,4.0894 -16.80692,9.9982 -23.54352,17.02778 -13.72726,13.48686 -25.75157,28.54952 -38.13213,43.24297 -17.20932,21.26734 -32.40417,44.06548 -48.75748,65.97064 -7.82534,10.80444 -15.9057,21.48292 -22.50758,33.09679 -3.25557,6.02629 -5.48864,12.53977 -7.28341,19.13065 -2.91313,9.3725 -7.03598,18.3029 -11.70886,26.9279 -8.14789,16.5632 -13.86401,34.1623 -19.7811,51.609 -3.47699,10.4655 -6.67701,21.1246 -7.78191,32.1401 -1.02542,8.2696 -1.03018,16.8091 1.30395,24.8678 1.01289,4.7617 1.36429,9.6167 1.98518,14.4439 0.82524,8.0701 0.71255,16.282 -0.9025,24.2391 -2.25532,14.1315 -2.12329,28.4917 -2.40243,42.7607 -0.25286,20.0013 -0.82729,39.9973 -1.02935,59.9994 -0.12011,7.8434 -0.24627,15.7101 -1.17392,23.5062 -1.15753,5.695 -3.87998,10.8825 -5.92517,16.3044 3.30482,1.1158 7.0179,0.7956 10.10545,2.5847 6.41826,2.9495 11.87189,7.594 17.57229,11.7056 6.24949,4.6652 12.08258,9.8386 17.49951,15.4478 11.32739,11.2311 23.2819,21.9862 32.67627,34.9591 6.88247,9.7713 11.52465,21.0259 18.89429,30.4929 3.10977,4.1617 6.17622,8.3783 9.66607,12.2294 1.89228,1.504 4.45345,1.2162 6.7024,1.0658 35.84426,-0.9549 71.62565,-3.6815 107.26021,-7.6243 16.92434,-1.8563 33.82337,-3.9552 50.67102,-6.4081 5.89222,-0.9978 11.68337,-2.7713 16.96559,-5.5972 12.12782,-5.6506 25.17857,-9.0157 38.30342,-11.353 13.80963,-2.1434 27.83643,-0.6395 41.73819,-0.5282 8.8413,0.067 17.6819,-0.1862 26.5178,-0.4676 5.5565,-0.2239 11.147,-0.3417 16.6218,-1.4086 6.9306,-1.2319 13.6542,-3.3524 20.365,-5.4379 11.5449,-2.9837 23.6199,-2.72 35.4723,-2.5025 10.7156,0.1553 21.5762,0.5974 32.1213,-1.6753 8.0713,-2.2024 14.8959,-7.6232 23.1573,-9.2022 6.4699,-1.0834 13.09,0.2387 19.1716,2.4348 10.0022,3.3542 19.6554,7.8188 28.5045,13.5973 1.2469,0.5625 2.57,-0.9767 2.1035,-2.1719 0.1082,-8.9399 -0.1042,-17.9182 0.9627,-26.8118 2.0485,-11.5024 6.1179,-22.5709 11.6243,-32.8466 5.5349,-10.7378 11.7765,-21.1563 16.2596,-32.405 4.714,-11.1446 9.6888,-22.2088 13.395,-33.7407 0.824,-2.7973 1.6627,-5.6501 1.7528,-8.5799 -1.6691,-11.4372 -8.0062,-21.4487 -10.9288,-32.5099 -3.7791,-13.6618 -4.4224,-27.8771 -5.6495,-41.9289 -1.1888,-14.3472 -2.1428,-28.714 -2.8202,-43.0944 -0.5832,-8.2489 -0.4827,-16.5234 -0.6248,-24.7865 -0.1323,-16.5101 0.2793,-33.1955 3.9724,-49.3394 2.9571,-13.1424 7.8317,-25.8216 13.9891,-37.7751 7.0334,-13.9996 14.9223,-27.557 21.8753,-41.59896 8.9576,-17.51284 17.9543,-35.01957 27.7336,-52.08583 9.2347,-16.48769 18.6885,-32.94971 30.3215,-47.89312 5.2214,-6.76729 10.6866,-13.36754 16.7806,-19.36848 1.3882,-1.35492 3.0466,-2.70276 5.0869,-2.72955 3.0634,-0.29196 6.031,0.65437 8.9883,1.27344 1.8328,-0.009 2.671,-2.70877 1.2659,-3.83063 -3.0995,-4.52837 -6.1629,-9.32906 -10.8151,-12.43321 -5.433,-4.06104 -11.4039,-7.40385 -16.4812,-11.93712 -6.9194,-5.41435 -15.3218,-8.60417 -22.0417,-14.29994 -3.9271,-3.62063 -7.5462,-7.81668 -12.5063,-10.06292 -3.5965,-1.86969 -7.3163,-3.50977 -11.1716,-4.77212 -0.76,-1.91768 -3.7801,-2.34838 -4.9454,-0.58911 -3.6857,3.66057 -6.0839,8.32722 -8.8051,12.69373 -5.6128,9.44496 -11.5232,18.70851 -17.2964,28.05584 -14.8815,23.88326 -30.1541,47.55437 -46.6147,70.38134 -14.0204,19.65014 -26.9704,40.03419 -40.1129,60.27792 -16.0293,24.79062 -31.9144,49.67912 -48.9261,73.81252 -5.7519,8.0889 -11.81,15.9624 -18.2274,23.5388 -14.3606,17.3297 -28.955,34.6584 -46.0437,49.3904 -9.0669,7.8687 -19.4199,14.2635 -30.3461,19.2133 -18.3969,8.4861 -38.05177,13.7092 -57.72322,18.2637 -17.63299,4.0797 -35.63723,7.1556 -53.80142,6.7618 -19.05641,-0.3275 -37.92503,-4.2329 -55.94817,-10.2441 -18.66264,-6.2411 -36.46602,-15.7013 -51.11081,-28.9711 -12.94359,-11.7184 -23.37763,-26.4196 -29.10697,-42.951 -2.62966,-7.8236 -4.50226,-15.9234 -5.96196,-24.0497 -1.88133,-10.7012 -3.02293,-21.521 -3.79231,-32.36 -1.00605,-18.2905 2.66825,-36.46781 8.1077,-53.83402 2.35136,-7.58767 5.0722,-15.08813 8.50611,-22.258 11.21345,-24.5603 22.94217,-48.88384 34.99738,-73.03698 4.27772,-8.53596 8.79979,-16.95282 13.85972,-25.05468 9.50373,-15.7209 19.46391,-31.15292 29.61791,-46.45472 1.98911,-3.03684 3.95596,-6.08807 5.72656,-9.25977 -0.14457,-0.13196 -0.23184,-0.40891 -0.46875,-0.375 z" /><path
       id="path2528"
       style="font-variation-settings:normal;opacity:1;vector-effect:none;fill:url(#linearGradient7);fill-opacity:1;stroke:none;stroke-width:0.3;stroke-linecap:butt;stroke-linejoin:miter;stroke-miterlimit:4;stroke-dasharray:none;stroke-dashoffset:0;stroke-opacity:1;-inkscape-stroke:none;stop-color:#000000;stop-opacity:1"
       d="m 796.88477,840.51367 c -13.98573,4.80208 -27.63585,11.35192 -40.9712,17.88387 -7.9914,3.73016 -16.4656,6.42299 -25.14515,8.04902 -9.81913,1.83952 -19.77942,3.38516 -29.79458,3.1883 -6.15146,-0.12091 -12.40153,0.009 -18.33484,1.90019 -14.24498,4.54028 -27.54432,11.62531 -41.97609,15.58906 -16.26634,4.46762 -32.95761,7.9598 -48.35216,15.02373 -9.64926,4.42765 -17.46867,12.0836 -23.98301,20.3547 -8.89226,11.29029 -17.96967,22.44781 -26.33313,34.13678 -9.74303,13.6171 -18.19978,28.09775 -26.69766,42.51447 -10.01416,16.98911 -18.86741,34.93151 -23.55229,54.18501 -2.55316,10.4928 -3.92324,21.2205 -5.51007,31.8891 -4.06793,27.3496 -6.65627,54.9053 -10.87167,82.2256 -1.93866,12.5646 -7.1445,24.5853 -14.54124,34.9459 -3.77501,5.2877 -8.58252,9.7426 -13.22415,14.2406 -5.74852,5.5707 -11.56271,11.0739 -17.17126,16.7874 -10.55365,10.7512 -20.261,22.4109 -28.06877,35.3388 -11.42153,18.9115 -20.69571,39.0404 -28.53329,59.6611 -4.25115,11.1848 -6.94085,23.0772 -6.91707,35.1172 0.0223,11.281 0.81374,22.6947 -1.38272,33.8419 -2.84232,14.425 -7.14136,28.5166 -10.79129,42.7576 -4.63991,18.1036 -8.3902,36.472 -10.16837,55.0964 -1.32587,13.887 -2.45552,27.8014 -2.8908,41.7444 -0.57042,18.2718 0.8845,36.7137 5.60404,54.4328 4.55897,17.1163 11.98245,33.3059 20.36066,48.8445 4.41434,8.1871 8.9686,16.4752 15.33334,23.2761 3.73988,3.9962 9.67597,4.8438 15.01824,5.2967 24.17164,2.0491 48.55943,0.1963 72.63281,3.4131 18.60888,2.4866 37.22105,4.9553 55.78223,7.7855 18.40478,2.8064 36.87201,5.237 55.42445,6.8601 25.63179,2.2425 51.43109,3.3386 77.12792,1.6321 20.45828,-1.4854 40.68455,-5.564 60.28465,-11.5565 25.09035,-7.3668 49.61201,-16.5108 74.03481,-25.816 46.14369,-18.0009 91.32795,-38.3347 136.58621,-58.4247 12.34685,-5.5655 24.21148,-12.1238 36.33498,-18.1505 5.82431,-2.829 11.90984,-5.3736 18.4231,-5.866 6.44035,-0.6104 12.93088,-0.1718 19.3503,0.4254 1.8831,0.6488 3.5232,2.2561 5.6439,2.0198 3.1324,0 6.0674,-1.2506 9.1035,-1.8501 17.6112,-4.5067 34.6176,-11.0875 52.2333,-15.5877 19.2149,-5.387 38.5723,-10.5852 58.3992,-13.1155 13.1742,-1.7096 26.3141,-3.8646 39.2135,-7.064 8.4499,-1.8004 17.1037,-3.5046 24.7564,-7.6958 6.8098,-4.1109 11.5888,-10.9152 14.5827,-18.1708 3.9664,-9.68 5.039,-20.2402 5.377,-30.6137 0.7542,-18.124 0.6688,-36.2735 1.4642,-54.395 0.8439,-7.8106 2.3064,-15.7457 0.9123,-23.5829 -0.9287,-5.1712 -4.3008,-10.0105 -9.2012,-12.1099 -5.5908,-2.8144 -11.7849,-4.1418 -17.4343,-6.833 -7.107,-2.8913 -14.5847,-5.5002 -22.3607,-5.3591 -6.3521,0.1558 -12.2741,2.8295 -17.8019,5.7343 -5.1588,2.5983 -10.6219,4.9298 -16.4531,5.212 -10.2412,1.0399 -20.5428,0.2981 -30.8116,0.5016 -10.1844,-0.062 -20.5528,-0.027 -30.4185,2.8183 -8.8828,2.382 -17.6792,5.5562 -26.9306,6.0194 -15.7275,1.214 -31.5158,0.8868 -47.27364,0.7488 -11.58334,-0.3234 -23.32914,-0.823 -34.74072,1.5699 -13.28588,2.5009 -26.34545,6.5747 -38.4849,12.5161 -4.95954,2.2869 -10.37329,3.578 -15.78516,4.1795 -17.78319,2.6953 -35.67976,4.5711 -53.56073,6.5331 -42.51133,4.4128 -85.20847,7.0824 -127.94283,7.8387 -30.47653,0.2193 -60.96351,-3.6679 -90.4106,-11.4607 -20.67379,-5.4226 -40.81035,-12.7012 -61.38449,-18.4708 -3.05947,-0.8811 -6.16974,-1.5582 -9.31312,-2.0609 2.48888,-3.4412 3.22219,-7.8403 3.0918,-12.0059 -0.20771,-3.5491 -1.46666,-6.922 -2.00196,-10.414 -0.20177,-2.6559 0.86177,-5.2649 2.56105,-7.2701 2.83227,-3.7617 6.75209,-6.4814 10.50721,-9.2369 3.26671,-2.1899 6.85854,-3.9258 10.71104,-4.7274 2.15444,0.7604 3.71335,2.8904 6.12345,2.9855 3.32917,0.5744 6.60501,-1.3583 8.56824,-3.9261 3.25467,-3.609 4.52562,-8.6806 8.3092,-11.8583 3.58848,-2.7683 7.85522,-4.396 11.94709,-6.2763 5.81062,-2.5374 11.85858,-4.9895 16.58752,-9.3448 2.69067,-2.6741 3.72969,-6.4503 4.61934,-10.0226 1.38922,-4.7392 2.88159,-9.5181 3.08098,-14.4917 0.52559,-7.1835 0.30794,-14.393 0.57344,-21.5865 0.53163,-24.9906 0.88961,-49.9852 1.54246,-74.9731 0.17839,-6.9171 0.52868,-13.8494 1.58808,-20.6876 1.02633,-7.3929 2.0854,-14.8525 1.59653,-22.3378 -0.69573,-13.0197 -4.936,-25.6508 -4.59661,-38.7469 0.44421,-11.1496 3.45886,-22.0018 6.90429,-32.5494 3.53517,-10.5039 7.10427,-20.9994 10.88065,-31.4156 2.15164,-5.8201 4.30355,-11.6472 6.79596,-17.3316 4.04281,-8.9979 8.99119,-17.5783 12.60438,-26.7673 2.16939,-5.6198 3.80766,-11.4182 5.68579,-17.13653 9.52884,-26.84557 43.63167,-69.17013 72.15039,-104.739 11.84901,-14.77823 39.41287,-48.29172 39.41287,-48.29172 l 7.05388,-6.56645 c 0,0 -13.59939,3.7177 -14.76191,3.77277 z" /><path
       id="path2530"
       style="font-variation-settings:normal;opacity:1;vector-effect:none;fill:url(#linearGradient6);fill-opacity:1;stroke:none;stroke-width:0.3;stroke-linecap:butt;stroke-linejoin:miter;stroke-miterlimit:4;stroke-dasharray:none;stroke-dashoffset:0;stroke-opacity:1;-inkscape-stroke:none;stop-color:#000000;stop-opacity:1"
       d="m 1357.0879,862.38672 c -3.9831,0.16755 -7.4407,2.73598 -9.7852,5.80469 -17.0168,17.83132 -30.1336,38.90521 -42.1563,60.30932 -11.6795,20.72713 -22.8533,41.73807 -33.5385,62.99598 -7.2923,14.18149 -15.3712,27.97149 -22.0896,42.44649 -6.4594,14.1117 -11.3434,29.064 -13.1949,44.52 -2.0607,15.9618 -1.8055,32.1005 -1.5193,48.1577 0.6146,24.1374 2.576,48.2146 4.7174,72.2567 0.9581,10.2179 2.362,20.4745 5.6153,30.245 2.7214,8.5338 6.4968,16.6874 10.4921,24.6919 -1.9838,11.8302 -6.4272,23.0394 -11.1817,33.993 -4.1368,9.7033 -8.1652,19.4755 -13.1745,28.7714 -6.1832,11.7369 -12.8976,23.3561 -16.7555,36.1281 -3.616,11.8608 -4.5962,24.371 -4.3044,36.7242 0.113,9.6782 0.087,19.3581 -0.1625,29.034 -0.3252,16.9651 -0.6018,33.9311 -0.877,50.8971 -0.1837,8.0967 -0.4564,16.2844 -1.7092,24.2575 -1.4583,8.0196 -4.1783,16.0457 -9.3634,22.4528 -3.7639,4.5334 -9.0859,7.5413 -14.6833,9.2113 -7.359,2.423 -15.038,3.6063 -22.5384,5.4962 -10.7605,2.4484 -21.6707,4.1628 -32.6042,5.6233 -12.8636,1.8182 -25.7315,3.9116 -38.2278,7.5316 -28.3487,7.4478 -56.3581,16.0997 -84.5236,24.2017 0.659,-1.3665 1.317,-2.7334 1.9766,-4.0996 -9.81054,0.4976 -19.75131,-0.8866 -29.45703,1.0957 -10.03346,2.7148 -18.96442,8.2059 -28.19288,12.8133 -4.70508,2.4602 -168.98335,76.9909 -182.70551,82.3909 23.34019,16.8744 41.76253,31.275 67.09855,45.0358 22.88852,12.3265 46.66757,22.8805 70.36556,33.5298 27.87126,12.246 56.01098,23.9231 84.73192,34.0387 16.95039,6.0557 33.98519,11.9141 51.24509,17.0375 20.9289,6.153 42.1203,11.3799 63.3775,16.2659 15.2313,3.3979 30.6195,6.0802 46.0982,8.0787 21.1702,2.9037 42.4519,5.0231 63.5198,8.6326 12.0206,2.2698 23.6993,6.0621 34.8612,11.0342 10.4159,4.3022 20.9084,8.8467 32.1285,10.5389 12.844,1.7428 25.9106,-0.3142 38.2214,-4.0513 26.4659,-8.0175 50.3858,-23.4774 69.5807,-43.2688 5.4622,-5.632 10.0694,-12.0504 13.9089,-18.8779 5.4508,-9.6927 10.2787,-19.7281 15.0316,-29.7796 12.2019,-25.8048 22.9565,-52.2636 33.5115,-78.7777 11.6061,-29.1544 22.8158,-58.4745 33.2286,-88.0768 11.0772,-31.4911 21.1952,-63.3504 29.2029,-95.7693 6.2721,-25.7489 10.5594,-52.0153 12.0667,-78.4976 1.2754,-22.4077 2.7025,-44.9161 7.2423,-66.9404 4.8705,-23.6286 12.0397,-46.6982 17.502,-70.1887 8.7628,-37.6841 14.6726,-76.295 13.7294,-115.0757 -0.766,-31.4956 -5.8759,-62.8804 -15.2372,-92.9618 -3.0378,-9.7616 -6.3773,-19.4153 -9.1971,-29.2481 -4.3146,-15.0451 -9.4569,-30.0397 -17.6246,-43.47612 -7.3573,-12.10312 -17.4938,-22.51411 -29.4833,-30.08509 -8.3934,-5.30012 -17.5378,-9.20425 -26.6251,-13.13999 -4.0397,-1.7496 -7.5475,-4.49921 -11.2162,-6.90818 -27.8698,-18.29998 -53.122,-40.30991 -76.6756,-63.84184 -3.1435,-3.02133 -5.9913,-6.3285 -9.0126,-9.46249 -2.6063,-2.37388 -6.2045,-3.22434 -9.6193,-3.60695 -0.6708,-0.0777 -1.3418,-0.14929 -2.018,-0.10802 z" /><path
       id="path2532"
       style="fill:#fbd1c9;fill-opacity:1;stroke:none;stroke-width:0.3"
       d="m 644.10547,1320.9277 c -5.16131,0.1997 -9.67471,3.0032 -14.26341,5.0181 -7.7961,3.5616 -15.70229,7.3195 -22.09464,13.1506 -3.60943,3.4835 -5.3863,8.386 -8.84079,12.0064 -0.53629,0.1891 -1.19828,-0.1832 -1.71265,-0.4242 -1.24412,-0.7515 -2.45227,-1.6692 -3.92057,-1.9873 -2.85159,-0.7812 -5.77797,0.1947 -8.42705,1.2295 -5.84946,2.2511 -10.80195,6.2279 -15.52553,10.249 -3.34466,3.0642 -6.34286,6.9346 -7.00878,11.5424 -0.56752,4.5575 1.33325,8.9073 1.9612,13.3307 0.23405,2.5731 -0.9147,4.9461 -2.22889,7.0822 -1.01015,1.8463 -2.29382,3.6202 -2.77092,5.6972 0.14442,1.6126 1.94151,2.4017 3.38603,2.2939 12.5386,1.7861 24.28954,6.7243 36.39011,10.2779 25.41737,7.8843 51.05106,15.6159 77.51487,19.061 23.09059,3.0244 50.4612,-1.767 73.71293,-2.6407 2.17279,-0.462 1.79419,1.2442 0,0 -8.0971,-10.2172 -18.86542,-20.5432 -24.73005,-32.2348 -7.12709,-12.4139 -16.88649,-23.0474 -27.08647,-32.9909 -10.05749,-9.8179 -19.71972,-20.1601 -31.14884,-28.426 -5.27441,-3.9202 -10.59228,-7.8827 -16.52647,-10.7557 -2.1004,-0.9233 -4.37057,-1.5339 -6.68008,-1.4793 z" /><g
       id="g2542"
       transform="matrix(1,0,-0.10285941,1,48.600825,3.559322)"
       style="stroke:none" /><path
       style="color:#000000;font-style:normal;font-variant:normal;font-weight:normal;font-stretch:normal;font-size:medium;line-height:normal;font-family:sans-serif;font-variant-ligatures:normal;font-variant-position:normal;font-variant-caps:normal;font-variant-numeric:normal;font-variant-alternates:normal;font-feature-settings:normal;text-indent:0;text-align:start;text-decoration:none;text-decoration-line:none;text-decoration-style:solid;text-decoration-color:#000000;letter-spacing:normal;word-spacing:normal;text-transform:none;writing-mode:lr-tb;direction:ltr;text-orientation:mixed;dominant-baseline:auto;baseline-shift:baseline;text-anchor:start;white-space:normal;shape-padding:0;clip-rule:nonzero;display:inline;overflow:visible;visibility:visible;opacity:1;isolation:auto;mix-blend-mode:normal;color-interpolation:sRGB;color-interpolation-filters:linearRGB;solid-color:#000000;solid-opacity:1;vector-effect:none;fill:#000000;fill-opacity:1;fill-rule:nonzero;stroke:none;stroke-width:1.92592;stroke-linecap:round;stroke-linejoin:round;stroke-miterlimit:4;stroke-dasharray:none;stroke-dashoffset:0;stroke-opacity:1;color-rendering:auto;image-rendering:auto;shape-rendering:auto;text-rendering:auto;enable-background:accumulate"
       d="m 905.74805,485.13281 c -3.36819,1.14898 -6.06874,4.54093 -6.47657,8.50586 -0.4229,4.11144 1.74972,7.59817 5.08204,8.61524 0.46907,-5.70665 0.91233,-11.41483 1.39453,-17.1211 z"
       id="path2544" /><path
       id="path2534"
       style="font-variation-settings:normal;opacity:1;vector-effect:none;fill:url(#linearGradient14);fill-opacity:1;stroke:none;stroke-width:12.5;stroke-linecap:butt;stroke-linejoin:miter;stroke-miterlimit:4;stroke-dasharray:none;stroke-dashoffset:0;stroke-opacity:1;-inkscape-stroke:none;paint-order:markers stroke fill;stop-color:#000000;stop-opacity:1"
       d="m 654.80379,1687.7767 c 0,0 -16.49568,110.2557 -24.2979,165.4486 -2.46163,17.4209 -5.07935,34.8213 -7.21996,52.283 -0.44785,5.6855 -0.30089,11.403 0.17696,17.0815 h 655.37341 c 4.863,-0.1291 9.7306,-0.1735 14.5856,-0.5055 2.2588,-17.0092 1.6503,-34.2236 0.8262,-51.3111 -0.665,-9.1507 -2.0036,-18.2324 -3.3926,-27.2963 -11.9735,-0.2006 -23.5032,-4.0755 -34.4917,-8.5828 -12.4374,-5.0768 -24.862,-10.5615 -38.1343,-13.0669 -17.3042,-3.6848 -34.9448,-5.3283 -52.4622,-7.6484 -23.8851,-2.9159 -47.7599,-6.4069 -71.1391,-12.2027 -37.6516,-8.8368 -74.8228,-19.8021 -111.057,-33.3477 -24.39766,-8.8518 -48.46119,-18.5911 -72.20317,-29.0743 -21.80576,-9.4961 -43.40064,-19.4828 -64.71056,-30.0468 -12.32354,-6.1535 -24.34194,-12.9175 -35.93719,-20.3545 -13.61934,-8.6114 -34.95409,-23.0266 -43.01001,-28.4066 11.84514,-2.5084 -81.57212,30.5425 -112.90648,27.0305 z" /></g><g
     id="layer1"
     transform="matrix(3.1714297,0.00492442,-0.00492442,3.1714297,116.67845,-141.37749)"
     style="display:inline;fill:#afc6e9;stroke:none"><path
       id="path36"
       style="opacity:1;fill:url(#linearGradient54);fill-opacity:1;stroke:none;stroke-width:1.45029;stroke-linecap:round;stroke-linejoin:round;stroke-dasharray:none;stroke-opacity:1;paint-order:markers stroke fill"
       d="m 101.35419,89.280686 c -4.711759,0.227257 -9.648722,3.345076 -10.615881,8.198964 0.07083,0.710914 -0.508198,2.027428 -1.365473,1.474817 -1.478057,-2.912895 -3.543022,-5.883412 -6.860609,-6.799375 -4.487422,-1.42215 -4.217517,-8.785772 -6.419351,-4.900208 -1.222606,2.077368 -1.689023,4.531885 -1.580659,6.921839 -0.527706,0.986323 -1.697657,0.01913 -1.997038,-0.670929 -10.214416,-12.112238 -42.682898,-4.995575 -23.111157,-1.439527 1.705304,0.309843 4.475546,11.392543 4.224857,12.708473 -1.745578,9.16294 -1.134697,47.55597 1.549813,54.02701 3.534653,8.64406 2.996754,3.2807 -0.197596,13.00828 0.05922,4.74444 -2.105587,16.34496 1.055359,20.53757 12.925854,11.18903 46.230825,2.16433 46.230825,2.16433 l 9.74901,5.74969 2.75019,11.2492 -16.249219,5.99986 c 0,0 -17.102058,0.24998 -17.852007,0 -0.74995,-0.24998 -9.622562,-0.25018 -9.622562,-0.25018 0,0 -3.511219,-1.48063 -3.333306,0.78372 l 0.556324,7.08049 c 1.107369,14.0938 20.056473,13.10683 30.646808,12.74794 26.956922,-0.91353 38.899912,-5.02718 40.689672,-74.2048 -0.6399,-1.30967 0.89485,-2.80778 2.19911,-2.22009 5.05599,0.0102 9.66729,-3.13493 12.37149,-7.284 4.16498,-5.37103 3.07591,-21.53331 -7.81958,-23.93731 -0.9296,-0.15201 -1.39358,0.536 -2.12206,-0.14816 L 143.71524,117.2686 130.5802,93.628237 c -5.07296,-1.834498 -11.32358,-0.08225 -14.44376,4.386836 0.0804,1.021453 -1.8223,1.635759 -1.90781,0.380512 -1.12299,-5.774399 -7.23016,-9.439852 -12.87447,-9.11482 z" /><g
       id="path72"
       transform="matrix(1.6927307,0,0,1.6927307,-32.974088,-71.470232)"
       style="fill:#afc6e9;stroke:none"><path
         style="color:#000000;font-variation-settings:normal;opacity:0.169657;vector-effect:none;fill:#000000;fill-opacity:1;stroke:none;stroke-width:0.57638;stroke-linecap:round;stroke-linejoin:round;stroke-miterlimit:4;stroke-dasharray:none;stroke-dashoffset:0;stroke-opacity:1;-inkscape-stroke:none;paint-order:markers stroke fill;filter:url(#filter19);stop-color:#000000;stop-opacity:1"
         d="m 84.736598,107.83927 c -3.436093,-0.12686 -6.946614,1.28044 -8.282504,4.41678 -1.824457,4.28325 1.497964,3.99622 2.059199,2.54868 1.804785,-4.65493 8.942282,-4.3229 10.886283,0.39843 0.233201,0.7248 0.452093,1.46985 1.013798,2.00711 1.122668,1.07384 3.142477,-0.17482 2.68012,-1.99936 -0.210261,-1.55869 -0.453302,-3.06408 -1.532609,-4.38319 -1.524265,-1.86295 -4.151772,-2.88978 -6.824287,-2.98845 z"
         id="path19" /><path
         style="color:#000000;fill:#87a9de;fill-opacity:1;stroke:none;stroke-width:1.43469;stroke-linecap:round;stroke-linejoin:round;stroke-dasharray:none;stroke-opacity:1;paint-order:markers stroke fill"
         d="m 105.96715,106.8306 c 10.14849,-7.721658 0.43342,-16.385476 -2.94448,-13.230758 5.12138,-8.882078 -4.820591,-17.121871 -10.060418,-11.979703 -0.618939,-3.514668 -3.40024,-4.991583 -6.186967,-5.175861 -2.786728,-0.184279 -8.638718,-0.125307 -11.817217,5.003974 -3.03725,-6.199985 -13.243025,-5.644713 -15.779136,1.411209 -0.39467,-0.484772 -0.880325,-0.952879 -1.501168,-1.358377 -5.19314,-3.391837 -13.343642,0.80467 -10.619975,8.069836 -5.390038,-0.687046 -7.022364,8.145838 -3.914387,12.63598 1.047683,1.51362 1.692586,3.48381 7.337,3.88404 2.098523,0.14881 2.843858,-0.93722 4.403431,-1.92904 1.142539,-0.7266 1.866244,-1.94491 2.326593,-3.33658 1.330752,1.12345 3.131791,1.68988 4.821001,1.57934 1.186196,-0.0777 2.371796,-0.51629 3.137862,-1.43002 0.107146,-0.12781 0.119094,-0.31494 0.20589,-0.45727 1.049227,0.93743 2.442941,1.50605 3.887156,1.61122 1.306579,0.0951 2.688866,-0.21522 3.862483,-1.06837 0.223581,-0.16252 0.373328,-0.41607 0.575615,-0.61496 0.813528,1.42348 2.320442,2.33429 4.010193,2.35452 1.360335,0.0161 2.801395,-0.46763 4.013651,-1.52317 0.352636,-0.30707 0.468243,-1.14626 0.923135,-1.14626 h 4e-6 c 1.456414,0 1.712296,1.95184 2.905549,2.20891 1.478686,0.31855 3.230474,-0.13047 4.690909,-1.35948 0.234796,1.06636 0.651509,2.2495 1.362844,3.25014 0.727024,1.0227 1.785707,1.85475 3.152252,2.02054 0.831684,0.10088 1.765818,-0.15202 2.73668,-0.57373 -0.489533,6.21352 0.95889,9.87437 6.58969,8.05601 2.24736,-0.82341 7.04433,-4.95047 1.88181,-6.90218 z"
         id="path42" /><path
         style="color:#000000;fill:#afc6e9;stroke:none;stroke-linecap:round;stroke-linejoin:round;-inkscape-stroke:none;paint-order:markers stroke fill"
         d="m 77.094002,163.71869 c -0.373213,0.004 -0.754734,0.11987 -1.062984,0.38654 -0.30825,0.26667 -0.512437,0.69875 -0.50953,1.16995 1.36e-4,0.015 8.37e-4,0.03 0.0021,0.045 0.05269,0.64002 -0.04305,1.43717 0.08785,2.27945 0.04202,0.26836 0.259073,0.47502 0.529167,0.50384 0.726071,0.0784 1.361169,-0.0422 1.898592,-0.0331 0.246455,0.004 0.470264,-0.1432 0.564307,-0.37104 0.184413,-0.44813 0.135439,-0.82194 0.127124,-1.26555 -0.0083,-0.4436 -0.03033,-0.90708 -0.01395,-1.16841 0.0017,-0.0201 0.0024,-0.0403 0.0021,-0.0605 -0.01724,-0.46548 -0.243942,-0.88146 -0.558622,-1.13274 -0.314679,-0.25129 -0.693249,-0.35759 -1.066085,-0.35347 z"
         id="path20" /><path
         style="color:#000000;fill:#afc6e9;stroke:none;stroke-linecap:round;stroke-linejoin:round;-inkscape-stroke:none;paint-order:markers stroke fill"
         d="m 81.177474,163.5802 c -0.713877,-0.0325 -1.395422,0.56477 -1.583883,1.47432 -0.0014,0.008 -0.0026,0.0158 -0.0036,0.0238 -0.134209,0.79714 0.06995,1.53033 0.05478,2.01538 -0.01317,0.40446 0.369603,0.70573 0.759644,0.59789 0.341131,-0.0948 0.939424,0.10755 1.747696,-0.0687 0.27562,-0.0598 0.472403,-0.30346 0.47284,-0.58549 0,-0.005 0.0061,-0.38259 -0.0036,-0.83044 -0.0089,-0.40948 -0.02511,-0.81369 -0.109554,-1.18753 -0.04262,-0.78262 -0.629551,-1.40725 -1.333768,-1.43918 z"
         id="path15" /><path
         style="color:#000000;font-variation-settings:normal;opacity:1;vector-effect:none;fill:url(#linearGradient40);fill-opacity:1;stroke:none;stroke-width:1.21608;stroke-linecap:round;stroke-linejoin:round;stroke-miterlimit:4;stroke-dasharray:none;stroke-dashoffset:0;stroke-opacity:1;-inkscape-stroke:none;paint-order:markers stroke fill;stop-color:#000000;stop-opacity:1"
         d="m 84.64703,106.72527 c -3.651845,-0.12686 -7.382793,1.28044 -8.802564,4.41678 -1.939015,4.28325 1.592021,3.99622 2.188497,2.54868 1.918108,-4.65493 9.50377,-4.3229 11.569836,0.39843 0.247843,0.7248 0.480479,1.46985 1.077454,2.00711 1.193161,1.07384 3.339794,-0.17482 2.848405,-1.99936 -0.223463,-1.55869 -0.481764,-3.06408 -1.628841,-4.38319 -1.619975,-1.86295 -4.412463,-2.88978 -7.252787,-2.98845 z"
         id="path14" /><path
         style="color:#000000;fill:#ffd2ca;fill-opacity:1;stroke:none;stroke-width:0.814844;stroke-linecap:round;stroke-linejoin:round;-inkscape-stroke:none;paint-order:markers stroke fill"
         d="m 100.05309,119.90331 c -0.850302,1.10159 -0.225615,1.76167 0.42665,1.74491 1.54876,-0.0159 4.81249,-3.25855 7.8414,-0.96301 4.22189,3.19966 3.3944,11.01708 -0.1798,14.61992 -1.9121,1.92737 -7.12496,2.85423 -7.18493,-1.07371 -0.0162,-1.06342 -1.150925,-0.52759 -1.249774,0.12507 -0.284992,1.88167 0.664304,3.19938 3.027584,3.77872 5.15831,1.15748 8.41246,-3.20798 9.81753,-7.6524 1.47065,-5.2942 -1.9672,-16.73152 -12.49866,-10.5795 z"
         id="path21" /><path
         style="color:#000000;opacity:0.469821;mix-blend-mode:normal;fill:url(#radialGradient23);fill-opacity:1;stroke:none;stroke-width:1.06273;stroke-linecap:round;stroke-linejoin:round;stroke-opacity:1;-inkscape-stroke:none;paint-order:markers stroke fill;filter:url(#filter41)"
         d="m 99.016811,108.16844 c -0.03044,-0.7521 0.0032,-1.4164 0.515535,-2.11897 0.512354,-0.70256 -0.256033,-2.73707 -1.42259,-1.94442 -0.01118,0.009 -0.0093,0.0197 -0.02006,0.0275 l -0.0049,-0.01 c -1.424841,1.06143 -2.484686,1.32045 -3.28014,1.21268 -0.795504,-0.1075 -1.417649,-0.59079 -1.920696,-1.31196 -0.755023,-0.95831 -0.921145,-2.27845 -1.218808,-3.5183 0.712988,-1.384416 -0.875235,-2.411727 -1.644524,-1.037219 -1.00056,1.792149 -2.586208,2.333539 -3.954082,2.053099 -1.367871,-0.28043 -2.37047,-1.29917 -2.018561,-3.237748 0.111711,-0.6268 -0.254643,-1.100786 -0.838869,-1.062861 -0.584176,0.03775 -1.177375,0.566832 -1.32161,1.186692 -0.308246,1.35522 -0.909271,2.231427 -1.598802,2.806507 -0.68954,0.57511 -1.518905,0.86861 -2.323835,0.88036 -1.609718,0.0228 -3.094045,-0.8831 -2.558476,-3.287972 0.299144,-1.403128 -2.040048,-1.265987 -2.393182,0.100845 -0.271927,1.101957 -0.791094,1.759907 -1.402522,2.182237 -0.611428,0.42235 -1.38389,0.62836 -2.212892,0.59524 -1.658009,-0.0662 -3.367547,-1.0909 -3.658997,-2.72017 l -0.0049,0.0013 c -0.0021,-0.01112 0.0015,-0.01904 -9.48e-4,-0.02959 -0.277796,-1.20284 -2.383629,-0.847855 -2.183262,0.368193 0.0021,0.0101 0.0083,0.01819 0.01011,0.02867 l -0.0048,0.0013 c 0.230134,1.060117 0.02828,1.647687 -0.290218,2.013637 -0.318501,0.36595 -0.851215,0.59348 -1.578982,0.63954 -1.455544,0.0922 -3.406426,-0.70802 -4.157536,-2.083695 -0.487511,-0.898479 -1.905139,-0.518794 -1.857076,0.497645 0.07288,1.62013 -0.679188,2.75694 -1.927689,3.52859 -1.147958,0.70947 -1.332639,1.66551 -3.005264,1.57358 -8.832574,-0.48545 -7.692525,-12.780414 -1.827013,-10.865937 3.294151,1.075171 2.728094,-0.27093 2.044838,-1.397885 -3.586312,-5.915196 5.545949,-8.550328 7.602459,-2.523343 1.103886,2.4924 2.436684,1.525465 2.811427,-0.02943 -1.445733,-5.113364 5.813036,-9.203794 10.066547,-5.162825 1.411338,1.34082 1.095077,3.595105 1.372379,5.573789 -0.11412,2.206351 1.704219,1.138397 1.990333,-0.172487 0.457082,-5.546327 5.262279,-8.200036 8.875759,-8.25933 3.613481,-0.0593 6.33978,1.99813 4.844436,7.571851 -1.192496,2.71576 1.548096,2.514764 2.47322,0.416832 5.49666,-10.502746 15.90893,-3.599916 7.525498,5.777278 -2.414472,1.887255 -0.04658,2.733501 1.132304,1.681613 8.366768,-3.255596 11.526568,6.145434 2.701338,9.102164 -2.0457,1.50259 5.20645,3.07061 1.37038,5.28869 -3.24621,1.877 -4.338892,-1.13195 -4.705528,-4.33697 z"
         id="path3"
         transform="matrix(0.98331119,0,0,1.0189845,1.7491081,-4.2268992)" /><path
         style="color:#000000;font-variation-settings:normal;opacity:0.169657;vector-effect:none;fill:#000000;fill-opacity:1;stroke:none;stroke-width:0.554434;stroke-linecap:round;stroke-linejoin:round;stroke-miterlimit:4;stroke-dasharray:none;stroke-dashoffset:0;stroke-opacity:1;-inkscape-stroke:none;paint-order:markers stroke fill;filter:url(#filter19);stop-color:#000000;stop-opacity:1"
         d="m 63.462314,108.07135 c -3.436093,-0.12686 -7.232943,0.50683 -8.568833,3.64317 -1.824457,4.28325 0.740268,4.71769 1.629706,3.47701 3.088463,-4.3081 10.230241,-4.92259 12.10318,-0.22046 0.233201,0.7248 0.452093,1.46985 1.013798,2.00711 1.122668,1.07384 2.211909,-0.17482 1.749552,-1.99936 -0.210261,-1.55869 -0.38172,-1.51686 -1.461027,-2.83597 -1.524265,-1.86295 -3.793861,-3.97283 -6.466376,-4.0715 z"
         id="path22"
         transform="matrix(1.0807303,0,0,1,-4.4109503,0)" /></g><path
       style="color:#000000;font-variation-settings:normal;opacity:0.734095;mix-blend-mode:normal;vector-effect:none;fill:#d36290;fill-opacity:1;stroke:none;stroke-width:1.64247;stroke-linecap:round;stroke-linejoin:round;stroke-miterlimit:4;stroke-dasharray:none;stroke-dashoffset:0;stroke-opacity:1;-inkscape-stroke:none;paint-order:markers stroke fill;filter:url(#filter60);stop-color:#000000;stop-opacity:1"
       d="m 61.367912,147.0613 c 0.552906,5.48038 5.453044,12.77717 14.809645,11.5096 1.649445,-0.22344 1.150427,-2.82119 -0.482694,-2.49943 -7.569511,1.49132 -11.568296,-6.96559 -11.797773,-9.26474 -0.165431,-1.65744 -2.696376,-1.4027 -2.529178,0.25457 z"
       id="path32"
       transform="matrix(0.91425549,0,0,0.86109484,6.6189838,24.309328)" /><path
       style="font-variation-settings:normal;opacity:1;vector-effect:none;fill:#f0a3b3;fill-opacity:1;stroke:none;stroke-width:0.832499;stroke-linecap:round;stroke-linejoin:round;stroke-miterlimit:4;stroke-dasharray:none;stroke-dashoffset:0;stroke-opacity:1;-inkscape-stroke:none;paint-order:normal;filter:url(#filter64)"
       d="m 72.279057,214.06474 c -0.04612,-0.21427 24.838741,8.31393 38.499703,-0.92331 l -36.641938,0.007 z"
       id="path63"
       transform="matrix(1.1351837,0,0,0.85514051,-14.71679,34.949613)" /><path
       style="font-variation-settings:normal;opacity:1;vector-effect:none;fill:#f0a3b3;fill-opacity:1;stroke:none;stroke-width:1.441;stroke-linecap:round;stroke-linejoin:round;stroke-miterlimit:4;stroke-dasharray:none;stroke-dashoffset:0;stroke-opacity:1;-inkscape-stroke:none;paint-order:normal;filter:url(#filter63)"
       d="m 53.199454,209.52056 c 0,0 -17.361641,16.47649 0.470287,18.57525 14.731555,1.73386 44.578908,0.77998 58.934189,-21.73049 -1.91797,0 -0.94196,15.2813 6.85928,17.2202 7.24112,1.79968 15.22419,-1.09619 10.11847,-16.32011"
       id="path62"
       transform="matrix(0.58642164,0,0,0.5866093,26.926181,51.574705)" /><path
       id="path54"
       style="font-variation-settings:normal;opacity:1;vector-effect:none;fill:#ffaacc;stroke:none;stroke-width:2.54417;stroke-linecap:round;stroke-linejoin:round;stroke-miterlimit:4;stroke-dasharray:none;stroke-dashoffset:0;stroke-opacity:1;-inkscape-stroke:none;paint-order:markers stroke fill;stop-color:#000000;stop-opacity:1"
       d="m 101.46906,192.3048 -37.820792,3.67344 c -2.217473,6.74677 -0.766781,12.84622 4.139357,18.33589 0.12731,1.43718 0.939302,0.0438 0.939302,0.0438 l -0.412203,3.91628 c 0,0 32.764166,-0.3472 36.824126,-0.54468 5.04773,-0.3073 10.13212,-4.05296 10.73848,-9.30554 1.17454,-8.12128 -6.08647,-16.53607 -14.40827,-16.1192 z" /><path
       id="path1-68"
       style="font-variation-settings:normal;opacity:1;vector-effect:none;fill:url(#linearGradient38);fill-opacity:1;stroke:none;stroke-width:4.34116;stroke-linecap:round;stroke-linejoin:round;stroke-miterlimit:4;stroke-dasharray:none;stroke-dashoffset:0;stroke-opacity:1;-inkscape-stroke:none;paint-order:markers stroke fill;stop-color:#000000;stop-opacity:1"
       d="m 103.56899,207.04978 c -0.61623,-0.028 -1.28354,0.43648 -1.51675,1.56204 -0.15917,0.94538 0.0987,4.34592 0.0987,4.34592 l 2.78597,-0.11802 c 0,0 0.039,-3.68902 -0.15693,-4.39852 -0.0293,-0.84296 -0.59475,-1.3634 -1.21097,-1.39135 z m -7.873334,1.70926 c 0.03966,1.13667 0.131053,4.15888 0.131053,4.15888 l 2.887888,-0.0582 c 0,0 0.09747,-3.14915 0.109196,-4.16939 0.02094,-1.82225 -3.197647,-1.92369 -3.128137,0.0687 z m -27.233603,0.42948 c 0.06428,-1.25498 2.985734,-1.7038 3.068651,-0.11048 0.06738,1.29494 0.0068,2.61267 0.0068,3.90329 -0.243552,0.0418 -0.490504,0.0306 -0.736427,0.0306 -0.512252,0 -1.020722,0.0615 -1.534329,0.0615 -0.239101,0 -0.902728,0.10652 -0.716018,-0.043 -0.106321,-1.25664 -0.153988,-2.5659 -0.08864,-3.84184 z m 5.588662,4.26641 c -0.04264,-1.2547 0.02011,-2.56252 -0.02727,-3.79888 0.282321,-3.34468 5.183977,-2.7703 5.087144,0.0184 -0.05828,0.92488 -0.121301,2.73043 -0.05796,3.56258 -1.674533,0.2363 -3.337762,0.20769 -5.00191,0.21785 m 11.749536,-4.70081 -0.01371,4.75854 -3.252703,-0.23331 c 0,0 0.107732,-2.84377 -0.06136,-4.36543 -0.20572,-1.85129 3.33298,-1.96702 3.327773,-0.1598 z m 6.594197,-0.1721 c 0.06739,1.29494 0.0068,3.12431 0.0068,4.41493 -0.243551,0.0418 -0.490504,0.0306 -0.736427,0.0306 -0.512252,0 -1.020721,0.0615 -1.534329,0.0615 -0.239101,0 -0.902728,0.10641 -0.716018,-0.043 l -0.08919,-4.343 c -0.02602,-1.26682 2.986249,-1.71425 3.069167,-0.12103 z" /><path
       id="path1-6"
       style="fill:url(#linearGradient35);stroke:none;stroke-width:4.34116;stroke-linecap:round;stroke-linejoin:round;paint-order:markers stroke fill"
       d="m 70.684668,198.3887 c 0,0 -4.047727,0.0475 -6.066214,0 -0.210181,2.54648 0.11453,4.41399 0.133353,5.76716 0.07443,5.34887 6.070618,2.7494 6.024221,-0.11899 z m 25.340615,0.30191 c -1.840356,-0.001 -3.693285,-0.1134 -5.543019,0.0255 0.147928,1.83555 0.159641,3.16981 0.07505,5.61474 -0.0846,2.44493 5.413929,2.85502 5.623515,-0.25718 m 2.527404,0.092 c -0.0204,2.89865 4.554817,2.66411 4.217547,-0.27004 -0.0738,-1.63863 0.0843,-3.88587 -0.0848,-5.25581 -1.31494,0.17023 -2.6384,-0.0491 -4.093639,-0.0254 z M 82.15358,198.80532 c 0,0 4.047727,0.0417 6.066214,0 0.210181,2.23568 -0.114531,3.87527 -0.133354,5.0633 -0.07443,4.69602 -6.070618,2.41384 -6.024221,-0.10449 z m -6.238906,6.32716 c 1.104312,0.0381 3.128808,-0.48089 3.115021,-1.95094 l -0.04356,-4.64354 c -1.815795,-0.12832 -5.839955,-0.10178 -5.839955,-0.10178 0.374623,3.45903 -0.859425,6.57089 2.768488,6.69621 z" /><path
       style="fill:#ff7e7e;fill-opacity:0.576125;stroke:none;stroke-width:1.84582;stroke-linecap:round;stroke-linejoin:round;stroke-dasharray:none;stroke-opacity:1;paint-order:markers stroke fill"
       d="m 59.682543,193.66059 43.992987,-0.52344 c 12.22999,-0.20688 18.51274,23.94333 -0.84818,24.03463 l -38.833374,0.18313 c -4.586671,0.0219 1.563405,-4.04243 4.87176,-4.09231 l 34.201284,-1.03982 c 11.2571,-0.34225 10.63563,-13.27804 0,-13.12502 l -35.19673,-0.0295 c -6.319021,0.0506 -10.340827,-2.21436 -10.791453,-3.82866 -0.243698,-0.87301 2.603706,-1.55572 2.603706,-1.57898 z"
       id="path11" /><path
       style="color:#000000;opacity:0.800979;fill:#d36290;fill-opacity:1;stroke:none;stroke-width:1.64247;stroke-linecap:round;stroke-linejoin:round;-inkscape-stroke:none;paint-order:markers stroke fill;filter:url(#filter59)"
       d="m 119.05006,150.36106 c -5.20248,9.15627 -21.08322,3.94303 -22.942299,0.26616 -0.840979,-1.66328 -3.741017,-0.57811 -2.894708,1.08309 3.363654,6.60238 22.896647,10.8076 28.721507,-0.24499 0.87192,-1.65443 -1.95796,-2.73495 -2.8845,-1.10426 z"
       id="path16"
       transform="matrix(0.77921703,0,0,0.99999998,24.694595,2.7154086)" /><path
       style="font-variation-settings:normal;opacity:1;vector-effect:none;fill:url(#radialGradient62);fill-opacity:1;stroke:none;stroke-width:0.832498;stroke-linecap:round;stroke-linejoin:round;stroke-miterlimit:4;stroke-dasharray:none;stroke-dashoffset:0;stroke-opacity:1;-inkscape-stroke:none;paint-order:normal;stop-color:#000000;stop-opacity:1"
       d="m 64.690505,148.66614 c 0.03609,15.22264 19.73289,14.2102 19.461823,-0.40648 L 83.812599,129.94047 C 83.509253,113.58323 64.619052,118.53458 64.64155,128.02176 Z"
       id="path1" /><path
       style="fill:#afc6e9;stroke:#ffffff;stroke-width:1.946;stroke-linecap:round;stroke-linejoin:round;stroke-dasharray:none;paint-order:markers stroke fill"
       d="m 59.300193,191.50071 42.759717,-0.62613 c 16.90171,-0.24749 24.77166,28.59278 -0.94608,28.75039 l -35.743533,0.21905 c -5.116074,0.0261 -3.808991,-5.37696 -0.118779,-5.43662 l 36.129652,-0.70247 c 12.56015,-0.24421 11.86321,-16.96601 0,-16.78298 l -41.571924,0.64139 c -7.624348,0.0933 -7.013113,-5.96739 -0.509053,-6.06263 z"
       id="path12" /><path
       style="fill:url(#linearGradient1);fill-opacity:1;stroke:none;stroke-width:2.05849;stroke-linecap:round;stroke-linejoin:round;stroke-dasharray:none;paint-order:markers stroke fill"
       d="m 59.451199,115.63228 c 7.809083,-8.3666 32.780279,-12.8734 32.610921,11.94349 l -0.158795,23.26921 c -0.0314,4.60068 -1.325085,10.07697 3.577512,12.00057 8.113353,3.18339 9.322113,4.87033 9.694653,7.94761 2.06384,17.04783 -14.879388,14.16262 -11.742187,-0.18723 -1.205001,11.20618 -39.432642,18.87301 -50.101987,15.0684 -6.492309,-2.31512 -9.886453,-7.72125 -6.622676,-12.4113 5.308559,-7.62841 50.633047,-1.5129 50.558683,-16.54809 l -0.135757,-27.44798 c -0.08031,-16.23794 -15.834879,-17.32691 -24.314963,-8.26466 -6.190649,6.61565 -7.412889,-1.03355 -3.365404,-5.37002 z"
       id="path10" /><path
       style="fill:url(#radialGradient61);stroke:none;stroke-width:0.832498;stroke-linecap:round;stroke-linejoin:round;stroke-dasharray:none;stroke-opacity:1;paint-order:normal"
       d="m 118.77118,151.50726 -0.36129,-21.72931 c -0.20178,-12.13614 -20.409862,-12.89369 -19.683376,-0.29015 0.43468,7.54112 -0.179172,15.1069 0.0509,22.64709 0.278808,9.13739 20.173266,10.1681 19.993766,-0.62763 z"
       id="path2" /><path
       style="fill:#87a9de;fill-opacity:1;stroke:none;stroke-width:4.06763;stroke-linecap:round;stroke-linejoin:round;paint-order:markers stroke fill"
       d="m 70.869182,141.97738 0.09899,7.61012 c 0.0503,3.86739 6.740044,4.09744 6.716664,8.1e-4 l -0.04242,-7.43277 c -0.03135,-5.49366 -6.837055,-5.08459 -6.773236,-0.17816 z"
       id="path4" /><path
       style="fill:#87a9de;fill-opacity:1;stroke:none;stroke-width:4.06763;stroke-linecap:round;stroke-linejoin:round;paint-order:markers stroke fill"
       d="m 104.81181,142.2614 0.099,7.61012 c 0.0503,3.86739 6.74004,4.09744 6.71666,8.1e-4 l -0.0424,-7.43276 c -0.0314,-5.49366 -6.83705,-5.0846 -6.77323,-0.17817 z"
       id="path5" /><path
       style="mix-blend-mode:normal;fill:#ffe2dd;fill-opacity:1;stroke:#f5baaf;stroke-width:1.83186;stroke-linecap:round;stroke-linejoin:round;stroke-dasharray:none;stroke-opacity:1;paint-order:markers stroke fill;filter:url(#filter1)"
       d="m 140.03679,139.687 c -2.55031,-2.30491 4.26344,-5.32422 6.99513,-3.50729 8.55947,5.69317 1.62225,16.8538 -1.92629,17.88971 -4.15285,1.21231 -5.62045,-1.04729 -4.26811,-3.20534"
       id="path13" /><path
       style="fill:#ffffff;stroke:none;stroke-width:3.052;stroke-linecap:round;stroke-linejoin:round;stroke-dasharray:none;paint-order:markers stroke fill"
       d="m 74.711259,147.4508 c 1.944191,-0.97206 1.00886,-3.3172 -0.84842,-3.45722 -2.194725,-0.16538 -2.083411,4.9231 0.84842,3.45722 z"
       id="path17" /><use
       x="0"
       y="0"
       xlink:href="#path17"
       id="use17"
       transform="translate(33.807245,0.22270365)"
       style="fill:#afc6e9;stroke:none" /><path
       style="fill:url(#linearGradient37);fill-opacity:1;stroke:none;stroke-width:2.33318;stroke-linecap:round;stroke-linejoin:round;stroke-dasharray:none;paint-order:markers stroke fill"
       d="m 96.45306,177.6585 c 0.690861,2.56162 5.20641,2.56336 6.06025,0.17268 -0.12673,-1.81344 -5.866998,-1.43366 -6.06025,-0.17268 z"
       id="path18" /></g></svg>
